<svg width="893" height="890" viewBox="0 0 893 890" fill="none" xmlns="http://www.w3.org/2000/svg">
<path fill-rule="evenodd" clip-rule="evenodd" d="M444.956 889.677C537.257 889.677 622.992 861.561 694.062 813.426L813.393 882.513C848.489 902.831 892.413 877.507 892.413 836.954V465.722C892.413 450.356 891.255 435.051 889.036 419.912C876.074 185.9 682.209 0.135732 444.956 0.135742C199.316 0.135753 0.185536 199.266 0.185547 444.906C0.185558 690.546 199.316 889.677 444.956 889.677ZM233.136 453.487C329.341 481.344 404.869 556.918 432.793 652.484C434.715 659.064 449.346 659.065 451.268 652.485C479.197 556.912 554.719 481.343 650.923 453.487C657.419 451.606 657.42 438.214 650.924 436.332C554.719 408.469 479.191 332.894 451.266 237.327C449.344 230.747 434.714 230.747 432.791 237.327C404.863 332.9 329.34 408.47 233.135 436.333C226.639 438.214 226.64 451.606 233.136 453.487Z" fill="white"/>
</svg>


