<svg width="1393" height="468" viewBox="0 0 1393 468" fill="none" xmlns="http://www.w3.org/2000/svg">
<path fill-rule="evenodd" clip-rule="evenodd" d="M217.842 467.684C263.05 467.684 305.041 453.913 339.851 430.338L398.297 464.175C415.487 474.127 437 461.723 437 441.861L437 260.037C437 252.511 436.433 245.015 435.346 237.6C428.997 122.984 334.045 32 217.842 32C97.5313 32 -5.25896e-06 129.531 0 249.842C5.25896e-06 370.153 97.5313 467.684 217.842 467.684ZM114.096 254.045C161.215 267.689 198.208 304.704 211.885 351.511C212.826 354.734 219.992 354.734 220.934 351.511C234.613 304.701 271.602 267.688 318.722 254.045C321.904 253.124 321.904 246.564 318.722 245.643C271.602 231.996 234.61 194.98 220.933 148.173C219.991 144.95 212.826 144.95 211.884 148.173C198.205 194.983 161.215 231.996 114.095 245.643C110.914 246.564 110.914 253.124 114.096 254.045Z" fill="white"/>
<path d="M1035.5 146.198C1032.35 122.208 1013.26 103.055 988.905 99.5998C1013.26 96.1425 1032.35 76.9918 1035.5 53C1038.66 76.9898 1057.75 96.1425 1082.1 99.5998C1057.75 103.055 1038.66 122.206 1035.5 146.198Z" fill="white"/>
<path d="M1012.2 441.324V163.048H1060.62V441.324H1012.2Z" fill="white"/>
<path d="M758.996 161.199H807.415V439.475H758.996V391.611C734.878 428.344 699.816 446.71 653.807 446.71C614.849 446.71 581.641 432.611 554.185 404.412C526.728 375.842 513 341.151 513 300.337C513 259.523 526.728 225.017 554.185 196.819C581.641 168.249 614.849 153.964 653.807 153.964C699.816 153.964 734.878 172.33 758.996 209.063V161.199ZM659.929 399.96C688.128 399.96 711.689 390.498 730.611 371.576C749.534 352.282 758.996 328.536 758.996 300.337C758.996 272.138 749.534 248.578 730.611 229.655C711.689 210.361 688.128 200.714 659.929 200.714C632.102 200.714 608.727 210.361 589.804 229.655C570.881 248.578 561.42 272.138 561.42 300.337C561.42 328.536 570.881 352.282 589.804 371.576C608.727 390.498 632.102 399.96 659.929 399.96Z" fill="white"/>
<path d="M889.762 213.49C905.716 178.984 934.657 161.73 976.584 161.73V212.377C952.838 211.263 932.431 217.571 915.363 231.299C898.296 245.028 889.762 267.104 889.762 297.529V445.015H841.342V166.739H889.762V213.49Z" fill="white"/>
<path d="M1343.63 161.199H1392.05V439.475H1343.63V391.611C1319.51 428.344 1284.45 446.71 1238.44 446.71C1199.48 446.71 1166.28 432.611 1138.82 404.412C1111.36 375.842 1097.64 341.151 1097.64 300.337C1097.64 259.523 1111.36 225.017 1138.82 196.819C1166.28 168.249 1199.48 153.964 1238.44 153.964C1284.45 153.964 1319.51 172.33 1343.63 209.063V161.199ZM1244.57 399.96C1272.76 399.96 1296.32 390.498 1315.25 371.576C1334.17 352.282 1343.63 328.536 1343.63 300.337C1343.63 272.138 1334.17 248.578 1315.25 229.655C1296.32 210.361 1272.76 200.714 1244.57 200.714C1216.74 200.714 1193.36 210.361 1174.44 229.655C1155.52 248.578 1146.06 272.138 1146.06 300.337C1146.06 328.536 1155.52 352.282 1174.44 371.576C1193.36 390.498 1216.74 399.96 1244.57 399.96Z" fill="white"/>
<path d="M548.962 41.4335C555.66 41.4335 561.025 43.5645 565.059 47.8267C569.093 52.0127 571.11 57.721 571.11 64.9514V100H561.178V65.5222C561.178 60.8795 559.922 57.3024 557.41 54.7907C554.898 52.203 551.435 50.9091 547.021 50.9091C542.074 50.9091 538.078 52.4694 535.034 55.5899C531.989 58.6343 530.467 63.3531 530.467 69.7463V100H520.535V20.0846H530.467V51.1375C534.501 44.6681 540.666 41.4335 548.962 41.4335ZM591.94 76.0254C592.929 81.1248 595.25 85.0825 598.904 87.8985C602.633 90.7146 607.2 92.1226 612.603 92.1226C620.138 92.1226 625.618 89.3446 629.043 83.7886L637.491 88.5835C631.935 97.1839 623.563 101.484 612.375 101.484C603.318 101.484 595.935 98.6681 590.227 93.0359C584.595 87.3277 581.779 80.1353 581.779 71.4588C581.779 62.8584 584.557 55.7041 590.113 49.9958C595.669 44.2876 602.861 41.4335 611.69 41.4335C620.062 41.4335 626.874 44.4017 632.126 50.3383C637.453 56.1988 640.117 63.277 640.117 71.573C640.117 73.019 640.003 74.5032 639.775 76.0254H591.94ZM611.69 50.795C606.362 50.795 601.948 52.3172 598.447 55.3616C594.946 58.3298 592.777 62.3256 591.94 67.3489H630.071C629.233 61.9451 627.102 57.8351 623.677 55.0191C620.252 52.203 616.257 50.795 611.69 50.795ZM651.535 100V16.6597H661.467V100H651.535ZM676.62 100V16.6597H686.552V100H676.62ZM749.882 92.8076C744.022 98.592 736.905 101.484 728.533 101.484C720.161 101.484 713.045 98.592 707.185 92.8076C701.4 87.0233 698.508 79.907 698.508 71.4588C698.508 63.0106 701.4 55.8943 707.185 50.11C713.045 44.3256 720.161 41.4335 728.533 41.4335C736.905 41.4335 744.022 44.3256 749.882 50.11C755.743 55.8943 758.673 63.0106 758.673 71.4588C758.673 79.907 755.743 87.0233 749.882 92.8076ZM728.533 91.7801C734.242 91.7801 739.037 89.8393 742.918 85.9577C746.8 82.0761 748.741 77.2431 748.741 71.4588C748.741 65.6744 746.8 60.8415 742.918 56.9599C739.037 53.0783 734.242 51.1375 728.533 51.1375C722.901 51.1375 718.144 53.0783 714.263 56.9599C710.381 60.8415 708.44 65.6744 708.44 71.4588C708.44 77.2431 710.381 82.0761 714.263 85.9577C718.144 89.8393 722.901 91.7801 728.533 91.7801Z" fill="white"/>
</svg>

